<?xml version="1.0" encoding="utf-8"?><svg viewBox="0 0 217 112" xmlns="http://www.w3.org/2000/svg" xmlns:xlink="http://www.w3.org/1999/xlink"><style>:root>svg{display:none}:root>svg:target{display:block}</style><svg fill="none" viewBox="0 0 24 24" id="arrow" xmlns="http://www.w3.org/2000/svg"><path d="m7 9 5 5 5-5" stroke="#000" stroke-width="1.8"/></svg><svg fill="none" viewBox="0 0 61 16" id="arrow-right" xmlns="http://www.w3.org/2000/svg"><path d="M0 8h59m0 0-7-7m7 7-7 7" stroke="#098FCF" stroke-width="2"/></svg><svg fill="none" viewBox="0 0 48 48" id="certificate" xmlns="http://www.w3.org/2000/svg"><path fill-rule="evenodd" clip-rule="evenodd" d="m39.754 9.39-.002-.032a.976.976 0 0 0-.047-.237l-.01-.028a1 1 0 0 0-.047-.107l-.003-.005a.913.913 0 0 0-.065-.103c-.005-.009-.012-.017-.018-.025a.96.96 0 0 0-.081-.095L30.997.275a.944.944 0 0 0-.094-.082l-.026-.018a.888.888 0 0 0-.102-.065l-.008-.003a.984.984 0 0 0-.25-.09.994.994 0 0 0-.12-.014L30.367 0 30.333 0H9.094a.937.937 0 0 0-.938.937v40.128c0 .517.42.937.938.937h14.114v5.06a.938.938 0 0 0 1.436.795l3.57-2.24 3.571 2.24a.939.939 0 0 0 1.436-.795v-5.06h5.597c.517 0 .937-.42.937-.937V9.42l-.001-.032ZM31.272 3.2l5.282 5.283h-5.282V3.2Zm-8.526 25.756c-.066-.18-.173-.472-.176-.592.073-.09.327-.251.483-.35.334-.21.713-.45.987-.824.277-.379.39-.815.49-1.2.043-.17.114-.441.174-.544.033-.007.102-.017.232-.017.104 0 .221.006.345.012.142.007.289.014.442.014.337 0 .61-.038.857-.12.432-.144.777-.422 1.082-.667.168-.136.45-.363.548-.376.108.014.39.24.558.376.304.245.65.523 1.082.667.247.082.52.12.857.12.153 0 .3-.007.441-.014.124-.006.241-.012.346-.012.13 0 .199.01.232.017.06.103.13.375.174.543.1.386.212.822.49 1.2.274.375.652.614.987.825.155.099.41.26.482.35-.002.12-.11.413-.175.592-.14.38-.297.81-.297 1.287 0 .477.157.908.297 1.288.066.18.173.472.175.592-.073.09-.327.25-.482.35-.335.21-.713.45-.988.824-.277.378-.39.815-.49 1.2-.043.169-.113.441-.173.544a1.17 1.17 0 0 1-.232.017c-.105 0-.222-.006-.346-.012-.141-.007-.288-.015-.44-.015-.339 0-.611.039-.858.12-.432.144-.778.423-1.082.668-.166.134-.443.356-.553.376-.11-.02-.387-.242-.553-.376-.305-.245-.65-.524-1.082-.667a2.658 2.658 0 0 0-.857-.12c-.153 0-.3.007-.442.014-.123.006-.24.012-.345.012-.13 0-.199-.01-.232-.017-.06-.103-.13-.375-.174-.544-.1-.385-.213-.822-.49-1.2-.274-.374-.653-.614-.987-.825-.155-.098-.41-.259-.483-.35.003-.119.11-.412.176-.59.14-.38.297-.811.297-1.288 0-.478-.158-.909-.297-1.288Zm8.6 16.41-2.633-1.651a.94.94 0 0 0-.997 0l-2.633 1.652V36.93l.293-.011c.124-.007.24-.013.347-.013.166 0 .237.015.264.025.112.037.327.21.5.349.437.352.981.79 1.728.79.746 0 1.29-.438 1.728-.79.173-.14.387-.312.499-.35a.928.928 0 0 1 .265-.024c.106 0 .223.006.347.013.095.004.193.008.292.01v8.438Zm1.875-5.24v-3.952c.279-.378.395-.827.494-1.207.051-.2.122-.474.187-.561.064-.088.302-.239.476-.349.461-.291 1.036-.654 1.264-1.34.225-.678-.01-1.317-.198-1.832-.086-.233-.183-.497-.183-.642 0-.144.097-.409.183-.642.189-.514.423-1.154.198-1.831-.228-.686-.803-1.049-1.264-1.34-.174-.11-.412-.261-.476-.348-.065-.088-.136-.362-.187-.562-.135-.522-.303-1.171-.877-1.593-.457-.334-.986-.373-1.345-.373-.151 0-.298.007-.44.015a7.217 7.217 0 0 1-.346.012.919.919 0 0 1-.265-.025c-.111-.037-.326-.21-.498-.349-.438-.352-.983-.79-1.73-.79-.745 0-1.29.438-1.728.79-.172.139-.387.312-.498.35a.922.922 0 0 1-.265.024c-.106 0-.223-.006-.348-.013-.14-.007-.287-.014-.439-.014-.358 0-.887.039-1.344.373-.575.422-.743 1.071-.877 1.593-.052.2-.123.474-.187.561-.064.088-.303.239-.477.348-.461.292-1.035.655-1.263 1.34-.226.678.009 1.318.197 1.832.086.233.183.498.183.642 0 .145-.097.41-.183.643-.188.514-.423 1.154-.197 1.831.228.686.802 1.049 1.263 1.34.175.11.413.261.477.349.064.087.135.36.187.56.098.381.215.83.494 1.208v3.952H10.03V1.875h19.366v7.546c0 .518.42.938.937.938h7.546v29.768h-4.659Z" fill="#000"/><path fill-rule="evenodd" clip-rule="evenodd" d="M13.674 10.359h12.078a.938.938 0 0 0 0-1.875H13.674a.937.937 0 1 0 0 1.875ZM34.34 13.216H13.675a.937.937 0 1 0 0 1.875H34.34a.937.937 0 1 0 0-1.875ZM30.59 17.948H13.675a.938.938 0 0 0 0 1.875H30.59a.937.937 0 1 0 0-1.875ZM34.342 17.948a.94.94 0 0 0-.938.938.94.94 0 0 0 .938.937.94.94 0 0 0 .937-.938.94.94 0 0 0-.937-.937Z" fill="#000"/></svg><svg fill="none" viewBox="0 0 24 24" id="check" xmlns="http://www.w3.org/2000/svg"><path d="M5 11.5 9.5 16l9-9" stroke="#000" stroke-width="1.8"/></svg><svg fill="none" viewBox="0 0 64 64" id="click" xmlns="http://www.w3.org/2000/svg"><g clip-path="url(#ea)" fill="#000"><path d="M63.45 52.844 52.638 42.031l5.304-5.303a1.875 1.875 0 0 0-.733-3.105l-31.82-10.607a1.875 1.875 0 0 0-2.372 2.372l10.607 31.82a1.875 1.875 0 0 0 3.105.733l5.303-5.303L52.844 63.45c.367.366.846.55 1.326.55.48 0 .96-.184 1.326-.55l7.955-7.955a1.875 1.875 0 0 0 0-2.652Zm-9.28 6.63L43.356 48.66a1.875 1.875 0 0 0-2.651 0l-4.484 4.484L27.76 27.76l25.384 8.461-4.484 4.484a1.876 1.876 0 0 0 0 2.652L59.473 54.17l-5.303 5.303ZM24.375 15c1.035 0 1.875-.84 1.875-1.875V1.875a1.875 1.875 0 0 0-3.75 0v11.25c0 1.036.84 1.875 1.875 1.875ZM9.79 7.14A1.875 1.875 0 1 0 7.14 9.79l7.955 7.956a1.875 1.875 0 1 0 2.652-2.652L9.79 7.14ZM15.094 31.004l-7.955 7.955a1.875 1.875 0 1 0 2.652 2.652l7.955-7.955a1.875 1.875 0 1 0-2.652-2.652ZM33.656 17.746 41.61 9.79a1.875 1.875 0 1 0-2.652-2.652l-7.955 7.955a1.875 1.875 0 1 0 2.652 2.652ZM15 24.375c0-1.035-.84-1.875-1.875-1.875H1.875a1.875 1.875 0 0 0 0 3.75h11.25c1.036 0 1.875-.84 1.875-1.875Z"/><g clip-path="url(#eb)"><path d="M174.455 87.506c-9.7-10.1-21.4-15.5-33.8-15.5-12.3 0-24.1 5.3-34.2 15.4l-31.6 31.5c-2.6-1.4-5.2-2.7-7.7-4-3.6-1.8-7-3.5-9.9-5.3-29.6-18.8-56.5-43.3-82.3-75-12.5-15.8-20.9-29.1-27-42.6 8.2-7.5 15.8-15.3 23.2-22.8 2.8-2.8 5.6-5.7 8.4-8.5 21-21 21-48.2 0-69.2l-27.3-27.3c-3.1-3.1-6.3-6.3-9.3-9.5-6-6.2-12.3-12.6-18.8-18.6-9.7-9.6-21.3-14.7-33.5-14.7s-24 5.1-34 14.7l-.2.2-34 34.3c-12.8 12.8-20.1 28.4-21.7 46.5-2.4 29.2 6.2 56.4 12.8 74.2 16.2 43.7 40.4 84.2 76.5 127.6 43.8 52.3 96.5 93.6 156.7 122.7 23 10.9 53.7 23.8 88 26 2.1.1 4.3.2 6.3.2 23.1 0 42.5-8.3 57.7-24.8.1-.2.3-.3.4-.5 5.2-6.3 11.2-12 17.5-18.1 4.3-4.1 8.7-8.4 13-12.9 9.9-10.3 15.1-22.3 15.1-34.6 0-12.4-5.3-24.3-15.4-34.3l-54.9-55.1Zm35.8 105.3c-.1 0-.1.1 0 0-3.9 4.2-7.9 8-12.2 12.2-6.5 6.2-13.1 12.7-19.3 20-10.1 10.8-22 15.9-37.6 15.9-1.5 0-3.1 0-4.6-.1-29.7-1.9-57.3-13.5-78-23.4-56.6-27.4-106.3-66.3-147.6-115.6-34.1-41.1-56.9-79.1-72-119.9-9.3-24.9-12.7-44.3-11.2-62.6 1-11.7 5.5-21.4 13.8-29.7l34.1-34.1c4.9-4.6 10.1-7.1 15.2-7.1 6.3 0 11.4 3.8 14.6 7l.3.3c6.1 5.7 11.9 11.6 18 17.9 3.1 3.2 6.3 6.4 9.5 9.7l27.3 27.3c10.6 10.6 10.6 20.4 0 31-2.9 2.9-5.7 5.8-8.6 8.6-8.4 8.6-16.4 16.6-25.1 24.4-.2.2-.4.3-.5.5-8.6 8.6-7 17-5.2 22.7l.3.9c7.1 17.2 17.1 33.4 32.3 52.7l.1.1c27.6 34 56.7 60.5 88.8 80.8 4.1 2.6 8.3 4.7 12.3 6.7 3.6 1.8 7 3.5 9.9 5.3.4.2.8.5 1.2.7 3.4 1.7 6.6 2.5 9.9 2.5 8.3 0 13.5-5.2 15.2-6.9l34.2-34.2c3.4-3.4 8.8-7.5 15.1-7.5 6.2 0 11.3 3.9 14.4 7.3l.2.2 55.1 55.1c10.3 10.2 10.3 20.7.1 31.3ZM56.056-93.294c26.2 4.4 50 16.8 69 35.8 19 19 31.3 42.8 35.8 69 1.1 6.6 6.8 11.2 13.3 11.2.8 0 1.5-.1 2.3-.2 7.4-1.2 12.3-8.2 11.1-15.6-5.4-31.7-20.4-60.6-43.3-83.5s-51.8-37.9-83.5-43.3c-7.4-1.2-14.3 3.7-15.6 11-1.3 7.3 3.5 14.4 10.9 15.6ZM273.256 3.006c-8.9-52.2-33.5-99.7-71.3-137.5s-85.3-62.4-137.5-71.3c-7.3-1.3-14.2 3.7-15.5 11-1.2 7.4 3.7 14.3 11.1 15.6 46.6 7.9 89.1 30 122.9 63.7 33.8 33.8 55.8 76.3 63.7 122.9 1.1 6.6 6.8 11.2 13.3 11.2.8 0 1.5-.1 2.3-.2 7.3-1.1 12.3-8.1 11-15.4Z"/></g></g><defs><clipPath id="ea"><path fill="#fff" d="M0 0h64v64H0z"/></clipPath><clipPath id="eb"><path fill="#fff" transform="translate(-200 -206)" d="M0 0h473.806v473.806H0z"/></clipPath></defs></svg><svg fill="none" viewBox="0 0 52 52" id="clock" xmlns="http://www.w3.org/2000/svg"><g clip-path="url(#fa)" fill="#000"><path d="M26.019 51.066h-.002C12.197 51.066.952 39.82.95 26 .951 12.18 12.195.936 26.016.936 39.836.936 51.08 12.18 51.08 26c0 13.822-11.242 25.066-25.061 25.066Zm-.003-48.13C13.298 2.936 2.95 13.283 2.95 26 2.952 38.718 13.3 49.066 26.017 49.066h.002c12.716 0 23.06-10.347 23.06-23.066 0-12.717-10.346-23.064-23.063-23.064Z"/><path d="M26.018 43.75h-.001c-9.787 0-17.75-7.963-17.751-17.75 0-9.787 7.962-17.75 17.75-17.75 9.787 0 17.75 7.963 17.75 17.75 0 9.787-7.962 17.75-17.748 17.75Zm-.002-33.5c-8.685 0-15.75 7.066-15.75 15.75 0 8.685 7.067 15.75 15.75 15.75h.002c8.683 0 15.748-7.066 15.748-15.75 0-8.684-7.066-15.75-15.75-15.75Z"/><path d="M26.016 29.117a3.1 3.1 0 0 1-2.203-.91 3.123 3.123 0 0 1-.001-4.41 3.096 3.096 0 0 1 2.204-.914c.832 0 1.615.324 2.204.914a3.123 3.123 0 0 1-.001 4.41 3.096 3.096 0 0 1-2.203.91Zm0-4.234a1.12 1.12 0 0 0-.789 1.91c.418.418 1.156.42 1.578-.002a1.12 1.12 0 0 0 0-1.581 1.11 1.11 0 0 0-.79-.327Z"/><path d="M27.512 25.503a1 1 0 0 1-.707-1.707l6.901-6.901a1 1 0 1 1 1.414 1.414L28.22 25.21a.995.995 0 0 1-.707.293ZM24.508 25.493a.996.996 0 0 1-.707-.293l-5.125-5.125a1 1 0 0 1 1.414-1.415l5.125 5.126a1 1 0 0 1-.707 1.707Z"/></g><defs><clipPath id="fa"><path fill="#fff" d="M0 0h52v52H0z"/></clipPath></defs></svg><svg fill="none" viewBox="0 0 64 64" id="gas" xmlns="http://www.w3.org/2000/svg"><g clip-path="url(#ga)" fill="#000"><path d="M58.38 11.374v-3.75H28.919V0H12.986v7.624H5.617v3.75h3.295V60.25H5.617V64h52.764v-3.75h-3.295V11.374h3.295ZM16.737 3.75h8.432v3.874h-8.432V3.75Zm34.6 44.336H12.662V23.539h38.674v24.547ZM12.662 60.25v-8.414h38.674v8.414H12.662Zm38.674-40.461H12.662v-8.415h38.674v8.415Z"/><path d="M32 43.796a6.542 6.542 0 0 0 6.534-6.535c0-4.08-4.761-8.337-5.304-8.81L32 27.382l-1.23 1.07c-.544.473-5.305 4.73-5.305 8.81A6.542 6.542 0 0 0 32 43.796Zm-.005-11.309c.277.296.578.636.88 1.007 1.213 1.49 1.91 2.863 1.91 3.767A2.788 2.788 0 0 1 32 40.046a2.788 2.788 0 0 1-2.785-2.785c0-1.309 1.383-3.273 2.78-4.774Z"/></g><defs><clipPath id="ga"><path fill="#fff" d="M0 0h64v64H0z"/></clipPath></defs></svg><svg fill="none" viewBox="0 0 196 52" id="partner1" xmlns="http://www.w3.org/2000/svg"><g clip-path="url(#ha)"><path d="M51.757.673H.096V51.94h51.661V.673Z" fill="#ED1A3A"/><path d="M43.413 5.78c-1.188 0-2.086.782-2.534 1.721l-6.505 10.628c-.451.982-.78 2.087-.78 2.818 0 .653.09 1.23.33 1.762l7.037 16.682H13.637c-.984 0-1.795-.98-1.795-1.886V8.77c-.207-3.928-5.896-3.926-6.022.124l.125 30.498c0 3.315 2.583 5.972 5.897 5.972h37.254l-9.08-23.059c-.251-.858-.363-1.637.248-2.66l6.008-9.695c.084-.202.207-1.057.207-1.303-.12-1.76-1.51-2.944-3.066-2.866Zm-14.75.014c-1.461.01-2.92 1.011-2.92 2.975v20.563c0 2.986-4.047 2.74-4.047 0V8.77c0-3.928-5.856-3.928-5.856 0v20.728c0 4.74 3.567 7.892 7.824 7.892 4.373 0 7.927-3.152 7.927-7.892V8.769c0-2.003-1.467-2.985-2.928-2.975Z" fill="#fff"/><path d="M61.878 6.698v13.564c0 3.39-.347 5.275-3.129 5.275-.52 0-.868 0-1.388-.186v5.838c1.04.38 1.736.38 2.607.38 7.818 0 8.166-5.842 8.166-9.235v-9.795h4.517v18.65h6.253V6.698H61.878ZM80.99 6.698l8.514 17.71-3.126 6.78h6.776l10.077-24.49h-6.776l-3.649 10.36-4.345-10.36h-7.47ZM105.141 31.189h6.255v-10.55l6.428 10.55h7.991l-8.859-12.622 8.687-11.87h-7.471l-6.776 10.361V6.698h-6.255v24.49Z" fill="#000"/><path d="M136.068 31.944c8.339 0 12.161-6.407 12.161-13.001 0-6.404-3.822-12.812-12.161-12.812-8.166 0-11.988 6.408-11.988 12.812 0 6.594 3.822 13.001 11.988 13.001Zm0-5.84c-2.781 0-5.56-2.452-5.56-7.161 0-4.71 2.779-6.97 5.56-6.97 2.954 0 5.733 2.26 5.733 6.97s-2.779 7.16-5.733 7.16ZM151.357 6.698v24.49h6.081l8.686-14.693V31.19h6.083V6.698h-6.083l-8.686 14.696V6.698h-6.081Zm10.598-1.32c2.606 0 5.212-.942 6.431-3.77l-3.65-1.504c-.523 1.884-2.086 2.071-2.781 2.071-.52 0-2.259-.187-2.607-2.071l-3.646 1.505c1.04 2.827 3.822 3.77 6.253 3.77ZM178.811 6.698v13.564c0 3.39-.351 5.275-3.129 5.275-.52 0-.868 0-1.391-.186v5.838c1.043.38 1.739.38 2.606.38 7.819 0 8.167-5.842 8.167-9.235v-9.795h4.517v18.65h6.255V6.698h-17.025ZM57.41 44.934h.88v-4.545h5.14v4.544h.881v-8.908h-.88v3.649h-5.14v-3.649h-.88v8.909ZM66.553 44.934h4.82v-.716h-3.94v-3.916h3.784v-.715h-3.784v-2.843h3.94v-.719h-4.82v8.909ZM77.174 44.933h.87v-1.225h.367c2.901 0 4.1-1.704 4.1-3.49 0-2.09-1.556-3.474-4.1-3.474h-.366v-1.07h-.871v1.07h-.354c-2.56 0-4.113 1.384-4.113 3.474 0 1.785 1.2 3.49 4.113 3.49h.354v1.225Zm.87-7.474c2.91.037 3.55 1.387 3.55 2.76 0 2.139-1.432 2.696-3.55 2.77v-5.53Zm-.87 5.53c-2.118-.074-3.55-.631-3.55-2.77 0-1.373.637-2.723 3.55-2.76v5.53ZM85.69 44.934h.846v-8.19h2.387v-.719h-5.616v.719h2.383v8.19ZM89.964 44.934h.99l2.387-3.913h.758v3.913h.884v-8.909h-2.07c-2.717 0-3.108 1.789-3.108 2.579 0 1.505 1.187 2.417 2.584 2.367l-2.425 3.963Zm4.135-4.632h-1.272c-.72 0-2.151-.084-2.151-1.785 0-1.652 1.516-1.773 2.236-1.773H94.1v3.558ZM97.234 44.934h.88v-4.545h5.141v4.544h.88v-8.908h-.88v3.649h-5.14v-3.649h-.88v8.909ZM105.42 44.933h.883l1.234-2.892h3.781l1.238 2.892h.88l-4.025-9.138-3.991 9.138Zm2.437-3.595 1.554-3.646 1.591 3.646h-3.145ZM114.455 44.934h.99l2.387-3.913h.758v3.913h.88v-8.909h-2.068c-2.716 0-3.107 1.789-3.107 2.579 0 1.505 1.187 2.417 2.581 2.367l-2.421 3.963Zm4.135-4.632h-1.272c-.724 0-2.155-.084-2.155-1.785 0-1.652 1.519-1.773 2.239-1.773h1.188v3.558ZM124.697 44.934h.88v-4.315l4.026 4.315h1.149l-4.344-4.594 4.272-4.315h-1.077l-4.026 4.156v-4.156h-.88v8.909ZM136.432 45.213c2.669 0 4.859-1.907 4.859-4.715 0-2.806-2.19-4.703-4.859-4.703-2.631 0-4.821 1.897-4.821 4.703 0 2.809 2.19 4.715 4.821 4.715Zm0-.752c-2.189 0-3.903-1.63-3.903-3.963s1.714-3.997 3.903-3.997c2.193 0 3.941 1.664 3.941 3.997s-1.748 3.963-3.941 3.963ZM142.502 44.933h.846l.83-6.575 3.305 6.977 3.267-6.977.883 6.575h.793l-1.235-9.26-3.708 7.96-3.747-7.96-1.234 9.26ZM154.08 36.025v8.909h.88v-8.19h5.141v8.19h.88v-8.909h-6.901ZM162.268 44.933h.88l1.234-2.892h3.784l1.234 2.892h.881l-4.026-9.138-3.987 9.138Zm2.434-3.595 1.553-3.646 1.592 3.646h-3.145ZM171.531 44.934h.88v-4.545h5.141v4.544h.883v-8.908h-.883v3.649h-5.141v-3.649h-.88v8.909ZM180.672 36.025v9.31l6.146-7.45v7.048h.868v-9.26l-6.131 7.4v-7.048h-.883ZM189.67 44.934h.989l2.387-3.913h.758v3.913h.884v-8.909h-2.068c-2.719 0-3.11 1.789-3.11 2.579 0 1.505 1.187 2.417 2.584 2.367l-2.424 3.963Zm4.134-4.632h-1.271c-.721 0-2.152-.084-2.152-1.785 0-1.652 1.516-1.773 2.239-1.773h1.184v3.558Z" fill="#000"/></g><defs><clipPath id="ha"><path fill="#fff" d="M0 0h196v52H0z"/></clipPath></defs></svg><svg fill="none" viewBox="0 0 159 77" id="partner2" xmlns="http://www.w3.org/2000/svg"><path d="M130.095 46.82c-.623 0-1.131-.477-1.131-1.068 0-.013.006-.026.006-.04V27.627l.005-.078c.059-.53.533-.95 1.115-.95.58 0 1.063.42 1.119.95l.007.077v18.087c0 .013.004.027.004.04 0 .59-.506 1.067-1.125 1.067Zm2.103-23.545h-4.211c-3.56 0-3.772 2.918-3.772 4.8v17.263c0 1.885.212 4.804 3.772 4.804h4.211c3.56 0 3.778-2.92 3.778-4.804V28.076c.001-1.883-.218-4.801-3.778-4.801ZM52.94 23.275h9.7v3.336h-4.616v23.53H52.94V23.276ZM63.393 50.14h4.97L68.84 43h2.399l.469 7.14h4.977l-2.654-26.865h-7.986L63.393 50.14Zm5.626-10.093.877-13.44h.285l.871 13.44H69.02ZM83.966 40.735v5.056c0 .69.501.888.797.888.468 0 .797-.427.797-.888v-6.246c0-.844-.14-1.762-2.038-1.762h-2.06v-2.956h2.134c1.453 0 1.964-.352 1.964-1.991V27.49c0-.46-.328-.878-.797-.878-.296 0-.797.19-.797.878v4.383h-5.089v-3.796c0-1.883.222-4.802 3.778-4.802h4.216c3.562 0 3.776 2.919 3.776 4.802v4.3c0 2.911-1.926 3.716-3.455 3.64v.271c3.413-.083 3.456 2.683 3.456 3.646v5.405c0 1.885-.215 4.803-3.777 4.803h-4.216c-3.556 0-3.778-2.918-3.778-4.803v-4.603h5.089v-.001ZM93.994 23.275h11.766v26.867h-4.742V26.61h-2.283v23.53h-4.74V23.276ZM109.443 50.142h5.082V41.01h2.905c3.562 0 4.129-2.916 4.129-4.804v-8.13c0-1.881-.567-4.801-4.129-4.801h-7.987v26.868Zm5.082-12.095V26.61h1.335c.553 0 .953.499.953 1.34v8.757c0 .845-.4 1.34-.953 1.34h-1.335v-.001ZM152.202 23.275h6.615v26.867h-5.088V33.293h-.181l-2.62 16.849h-4.062l-2.617-16.849h-.179v16.849h-5.088V23.275h6.605l3.302 18.881 3.313-18.881ZM42.094 26.006c-.059 2.724-.38 5.599-.788 7.315.148-2.958-.205-7.135-.877-10.397-.669-3.263-2.573-8.702-4.09-11.225-1.395 2.398-3.122 7.107-4.025 11.199-.91 4.088-.935 9.035-.935 10.522-.243-1.261-.846-5.713-.672-10.195.143-3.7.993-7.497 1.46-9.248 1.78-5.836 3.797-9.565 4.173-10.16.38.595 2.921 5.188 4.238 10.013 1.309 4.83 1.57 9.452 1.516 12.176Zm-5.722 20.846c-.787-1.507-2.019-4.379-2.133-8.814-.033-4.298 1.662-7.975 2.16-8.746.443.771 1.895 3.974 2.07 8.357.121 4.29-1.278 7.664-2.097 9.203Zm6.187-32.96C40.954 6.751 36.92.945 36.372 0c-.878 1.33-4.09 6.456-5.722 12.143-1.782 6.341-2.044 11.965-1.431 17.51.614 5.536 2.921 11.222 2.921 11.222 1.226 2.988 3.063 6.183 4.259 7.754 1.75-2.31 5.785-9.201 7.037-18.208.698-5.005.724-9.393-.877-16.53Z" fill="#007BC4"/><path d="M26.513 50.136v8.444l.037-.035a7.394 7.394 0 0 1 10.534 0c2.913 2.938 2.913 7.715 0 10.652-.01.014-.02.023-.034.037v.003a.234.234 0 0 0-.043.04 14.787 14.787 0 0 1-10.494 4.37 14.795 14.795 0 0 1-10.523-4.404c-5.12-5.18-5.733-13.19-1.825-19.04a14.67 14.67 0 0 1 1.825-2.238 14.757 14.757 0 0 1 10.523-4.403V23.42C11.878 23.419 0 35.416 0 50.203c0 14.8 11.878 26.795 26.513 26.795 7.64 0 14.514-3.269 19.349-8.484V50.136H26.513ZM154.065 70.652c0 2.554-1.146 3.008-4.062 3.008h-2.683V61.998h2.683v4.501h.45c2.636 0 3.612.624 3.612 2.956v1.198ZM131.669 64.2h-2.032v9.469h-2.553V64.2h-2.178v-2.213h6.763V64.2Zm-20.649 5.3c0 2.37-1.186 3.007-3.828 3.007v1.153h-2.61v-1.153c-2.651 0-3.852-.637-3.852-3.006v-3.645c0-2.38 1.152-2.986 3.852-2.986v-.873h2.61v.873c2.684 0 3.828.606 3.828 2.986v3.645Zm-24.328-5.3H83.02v2.295h3.286v2.21h-3.286v2.75h3.67v2.213h-6.44V61.987h6.44V64.2Zm-22.258 9.46h-2.686v-5.105H60.37v5.105h-2.684V61.998h2.684v4.501h1.378v-4.501h2.686V73.66Zm94.383-14.572H52.94V77h105.877V59.088Zm-55.478 6.694v3.734c0 .685.217.841.808.841h.435v-5.434h-.435c-.59 0-.808.175-.808.859Zm47.261 2.773h-.597V71.6h.597c.603 0 .782-.154.782-.82v-1.404c0-.67-.179-.821-.782-.821Zm-42.996-3.632h-.412v5.434h.412c.597 0 .813-.17.813-.856v-3.75c0-.687-.216-.828-.813-.828Z" fill="#007BC4"/></svg><svg fill="none" viewBox="0 0 217 112" id="partner3" xmlns="http://www.w3.org/2000/svg"><g clip-path="url(#ja)" fill-rule="evenodd" clip-rule="evenodd"><path d="M82.718 83.66v-1.925h-4.886v1.925h-.57v-4.13h.57v1.791h4.886v-1.79h.564v4.13h-.564ZM85.203 83.66v-4.13h4.867v.412h-4.305v1.379h4.191v.409h-4.191v1.516h4.305v.414h-4.867ZM99.946 81.84v-.515c0-.982-.486-1.476-2.027-1.476H96.24v-.367h-.572v.367h-1.657c-1.551 0-2.037.411-2.037 1.476v.514c0 1.05.549 1.414 2.037 1.414h1.657v.406h.572v-.406h1.678c1.479 0 2.027-.344 2.027-1.414Zm-.573 0c0 .795-.384 1.004-1.454 1.004H96.24v-2.582h1.678c1.016 0 1.454.239 1.454 1.04v.537Zm-3.704 1.004h-1.657c-1.072 0-1.48-.21-1.48-1.01v-.55c0-.79.448-1.022 1.48-1.022h1.657v2.582ZM104.294 79.942v3.718h.568v-3.718h2.688v-.412h-5.923v.412h2.667ZM114.722 83.66v-4.128h-3.703c-1.368 0-1.932.34-1.932 1.278 0 .776.564 1.139 1.642 1.139l-1.87 1.713h.792l1.759-1.713h2.739v1.713h.573v-.002Zm-.573-2.12h-3.309c-.881 0-1.188-.115-1.188-.73 0-.64.322-.868 1.131-.868h3.366v1.598ZM122.246 83.66v-1.925h-4.883v1.925h-.568v-4.13h.568v1.791h4.883v-1.79h.571v4.13h-.571ZM130.897 83.66l-2.848-4.128h-.875l-2.846 4.129h.628l.707-1.036h3.866l.7 1.035h.668Zm-1.665-1.457h-3.26l1.625-2.376 1.635 2.376ZM137.39 83.66v-1.713h-2.738l-1.768 1.713h-.78l1.856-1.713c-1.076 0-1.634-.362-1.634-1.138 0-.94.558-1.279 1.925-1.279h3.712v4.13h-.573Zm0-3.718h-3.365c-.807 0-1.141.226-1.141.868 0 .616.31.73 1.195.73h3.311v-1.598ZM148.512 83.66h.998l-3.976-2.164 3.887-1.966h-1.007l-3.471 1.772h-.923V79.53h-.571v4.13h.571v-1.943h.947l3.545 1.943ZM156.91 82.244c0 .808-.269 1.003-1.424 1.003h-2.406c-1.071 0-1.47-.207-1.47-1.003v-1.318c0-.803.438-1.02 1.47-1.02h2.406c1.096 0 1.424.203 1.424 1.02v1.318Zm.564 0v-1.292c0-1.2-.655-1.47-1.988-1.47h-2.4c-1.562 0-2.047.422-2.047 1.47v1.292c0 1.06.554 1.416 2.047 1.416h2.4c1.461 0 1.988-.24 1.988-1.416ZM166.12 79.53h1.224v4.13h-.571v-3.795h-.316l-2.968 3.795h-.291l-2.963-3.795h-.321v3.795h-.566v-4.13h1.215l2.788 3.522 2.769-3.522ZM169.96 83.66v-3.718h4.87v3.718h.576v-4.13h-6.023v4.13h.577ZM182.819 83.66l-.7-1.035h-3.866l-.717 1.035h-.628l2.853-4.128h.865l2.848 4.129h-.655Zm-2.627-3.834-1.637 2.376h3.266l-1.629-2.376ZM191.125 83.66v-4.13h-.566v1.791h-4.876v-1.79h-.578v4.13h.578v-1.926h4.876v1.925h.566ZM199.102 83.66v-4.13h-1.11l-4.346 3.809h-.049V79.53h-.562v4.13h.924l4.357-3.81h.211v3.81h.575ZM205.977 81.54h-3.318c-.884 0-1.182-.115-1.182-.73 0-.64.313-.868 1.12-.868h3.38v1.598Zm.56 2.12v-4.128h-3.701c-1.359 0-1.929.34-1.929 1.278 0 .776.57 1.139 1.645 1.139l-1.876 1.713h.801l1.751-1.713h2.749v1.713h.56v-.002ZM77.212 89.778s12.379-.167 13.37.5c.991.656 1.98 1.326 2.146 2.643.165 1.325-.66 5.455-3.797 5.623-3.133.165-6.76-.168-6.76-.168l-.161 3.309-4.951-.165.153-11.742Z" fill="#201C26"/><path d="m82.332 93.084-.16 1.988s3.956.824 4.78 0c.825-.825.163-2.15-1.153-2.15-1.317 0-3.467.162-3.467.162Z" fill="#fff"/><path d="M92.728 92.922c1.326-1.486 3.634-3.803 8.905-3.475 5.281.333 8.092 2.477 8.092 4.972 0 2.472.157 5.778-2.978 6.766-3.13.997-6.27.997-8.412.672-2.146-.335-5.607-2.323-6.1-4.965-.496-2.646.493-3.97.493-3.97Z" fill="#241C24"/><path d="M97.682 96.061c-.302-2.136 1.48-3.474 2.964-3.474 1.483 0 3.952.168 3.789 2.981-.161 2.809-.32 2.643-1.804 3.142-1.486.495-4.457.996-4.949-2.649Z" fill="#fff"/><path d="M127.366 94.419c-.82-1.497-2.629-4.313-5.44-4.472-2.804-.167-6.601-.5-8.413.159-1.82.668-3.292 2.315-3.626 3.804-.328 1.493-.668 4.8 1.482 6.287 2.143 1.489 5.616 2.65 8.91 1.985 3.292-.66 6.43-1.985 6.925-4.797h-5.605s-1.492 1.987-3.3 1.82c0 0-1.66.501-2.811-1.15-1.148-1.662-.987-3.148.165-4.638 1.165-1.493 4.292-.997 4.624-.333.328.663.823 1.653.823 1.653l6.266-.318Z" fill="#241C24"/><path d="M126.878 90.106h5.116v3.974h5.106v-4.302h5.284v11.907h-4.953v-3.968h-5.271v3.968h-5.449l.167-11.58ZM144.039 89.778l14.681.168v2.976h-8.906v1.158h7.425v3.305h-7.759v1.495h9.568v3.137h-14.847l-.162-12.239Z" fill="#241C24"/><path d="M166.307 89.778h5.115s-.326.83.34.666c.65-.166 5.104-.34 6.429 1.322 1.316 1.65 1.815 3.801.49 5.29-1.325 1.49-2.478 2.149-3.294 2.149-.833 0-3.625.166-3.625.166v2.646h-5.455v-2.812s-3.467-.166-4.621-.495c-1.149-.333-3.299-1.653-3.299-3.802 0-2.152 1.155-3.973 2.811-4.134 1.642-.165 4.779-.165 4.779-.165l.33-.83Z" fill="#241C24"/><path d="m166.306 93.416-.164 2.48s-2.638.332-2.638-.654c0-.996.497-1.99 2.802-1.826ZM171.76 93.581l.156 2.316s1.485.664 2.316-.494c.815-1.157-.669-1.986-2.472-1.822Z" fill="#fff"/><path d="M182.142 93.416v8.766h5.278v-8.766h4.781l.998-1.319-1.483-1.819h-13.859c.004 0-.663 2.644.821 2.805 1.484.17 3.464.333 3.464.333Z" fill="#241C24"/><path d="M197.483 90.278v3.303s6.275-.328 7.431.328c1.154.664 2.308 1.66 2.472 2.81.164 1.165-.164 2.987-1.318 3.974-1.154.992-2.47 1.652-3.801 1.652h-9.56v-11.9l4.776-.167Z" fill="#241C24"/><path d="M197.986 97.057v1.982h3.294c.821 0 1.982-1.817.493-2.147-1.481-.332-3.787.165-3.787.165Z" fill="#fff"/><path d="M9.574 35.21h8.418v28.61l-8.418-7.445V35.209ZM19.643 25.785h8.083v47.297l-8.083-7.783V25.785ZM29.379 16.36h8.25v44.812h-8.25V16.36ZM39.272 6.935h8.579v44.977h-8.58V6.935ZM49.006 15.86h8.252V61.17h-8.252V15.86ZM59.238 25.611h8.083v39.525l-8.083 7.946v-47.47ZM68.803 35.042h8.256v20.674l-8.256 8.104V35.042Z" fill="#241C24"/><path d="M29.379 62.171h8.25v41.493h-8.25V62.171ZM39.272 53.241h8.08v50.423h-8.08V53.241ZM49.006 62.33h8.252v41.333h-8.252V62.329Z" fill="#B3B31C"/></g><defs><clipPath id="ja"><path fill="#fff" d="M0 0h217v112H0z"/></clipPath></defs></svg><svg fill="none" viewBox="0 0 202 56" id="partner4" xmlns="http://www.w3.org/2000/svg"><path d="M23.215 11.762c3.56 9.086-2.244 14.918-8.025 20.76-5.38 5.967-10.12 12.171-.587 23.336-3.56-9.084 2.244-14.917 8.02-20.753 5.385-5.981 10.124-12.177.592-23.343Z" fill="#EF3D42"/><path d="M14.603.142c3.566 9.09-2.235 14.918-8.02 20.756C1.202 26.87-3.536 33.075 6 44.24c-3.563-9.092 2.24-14.92 8.02-20.757 5.382-5.974 10.115-12.176.582-23.341ZM160.877 36.126v18.57h8.086v-6.798h8.884v-4.065h-8.884v-3.642h17.624v14.506h8.087V40.19h7.325v-4.064h-41.122ZM143.529 50.666v-3.219h10.544V43.38h-10.544V40.19h13.543v-4.066h-21.629v18.572h21.795v-4.03h-13.709Z" fill="#00B274"/><path d="M58.248 36.126H35.842v4.065h7.16v14.506h8.086V40.19h7.16v-4.064ZM64.37 47.66l3.741-7.188 3.581 7.188H64.37Zm9.842-11.534h-8.667l-10.092 18.57h5.255l1.66-3.187h11.331l1.655 3.188h8.955L74.212 36.125Z" fill="#EF3D42"/><path d="M125.522 36.126v9.284l-12.932-9.284h-6.276v18.57h5.535V44.48l13.279 10.218h5.927V36.125h-5.533Z" fill="#00B274"/><path d="M103.567 36.126H81.631v4.065h7.159v14.506h8.087V40.19h6.69v-4.064Z" fill="#EF3D42"/></svg><svg fill="none" viewBox="0 0 24 24" id="phone" xmlns="http://www.w3.org/2000/svg"><path d="M2.12 7.81a18.48 18.48 0 0 0 14.07 14.07 4.46 4.46 0 0 0 5.14-3.05l.51-1.6-5-2.49-2.38 2.38a15 15 0 0 1-4.55-3.05 15 15 0 0 1-3-4.55l2.35-2.38-2.49-5-1.6.51a4.46 4.46 0 0 0-3.05 5.16Z" fill="#000"/></svg><svg fill="none" viewBox="0 0 64 64" id="phone-big" xmlns="http://www.w3.org/2000/svg"><g clip-path="url(#la)" fill="#000"><path d="M50.58 39.646c-1.31-1.364-2.89-2.094-4.565-2.094-1.662 0-3.255.716-4.62 2.08l-4.268 4.255c-.351-.189-.703-.365-1.04-.54-.487-.243-.946-.473-1.337-.716-3.999-2.54-7.632-5.849-11.117-10.13-1.689-2.135-2.823-3.931-3.647-5.755 1.107-1.013 2.134-2.067 3.133-3.08.379-.378.757-.77 1.135-1.148 2.837-2.837 2.837-6.51 0-9.347l-3.688-3.688c-.418-.419-.85-.85-1.256-1.283a63.732 63.732 0 0 0-2.54-2.512c-1.31-1.297-2.876-1.986-4.524-1.986-1.648 0-3.242.689-4.593 1.986l-.027.027-4.592 4.633c-1.73 1.729-2.715 3.836-2.932 6.28-.324 3.945.838 7.619 1.73 10.023 2.188 5.903 5.457 11.374 10.333 17.236C18.08 50.952 25.2 56.53 33.33 60.461c3.107 1.472 7.254 3.215 11.887 3.512.284.014.58.027.851.027 3.12 0 5.74-1.121 7.794-3.35.013-.027.04-.04.054-.067.702-.851 1.513-1.621 2.364-2.445a53.122 53.122 0 0 0 1.756-1.743c1.337-1.391 2.04-3.012 2.04-4.673 0-1.675-.716-3.283-2.08-4.634l-7.416-7.442Zm4.836 14.223c-.013 0-.013.014 0 0-.527.568-1.067 1.08-1.648 1.648-.878.838-1.77 1.716-2.607 2.702-1.364 1.459-2.971 2.147-5.078 2.147-.203 0-.42 0-.622-.013-4.012-.257-7.74-1.824-10.536-3.16-7.645-3.702-14.358-8.956-19.937-15.616-4.606-5.551-7.686-10.684-9.726-16.195-1.256-3.364-1.715-5.984-1.512-8.456.135-1.58.742-2.89 1.864-4.012l4.606-4.606c.662-.621 1.364-.959 2.053-.959.85 0 1.54.513 1.972.945l.04.041a68.28 68.28 0 0 1 2.432 2.418c.419.432.85.864 1.283 1.31l3.688 3.688c1.431 1.432 1.431 2.755 0 4.187-.392.392-.77.784-1.162 1.162-1.135 1.161-2.215 2.242-3.39 3.296-.027.027-.054.04-.068.067-1.162 1.162-.946 2.296-.702 3.066l.04.122c.96 2.323 2.31 4.512 4.363 7.119l.014.013c3.728 4.593 7.659 8.172 11.994 10.914.554.351 1.122.635 1.662.905.486.243.945.473 1.337.716.054.027.108.068.162.095.46.23.892.337 1.337.337 1.122 0 1.824-.702 2.054-.932l4.62-4.62c.459-.459 1.188-1.012 2.039-1.012.837 0 1.526.526 1.945.986l.027.027 7.443 7.442c1.391 1.378 1.391 2.797.013 4.228ZM34.587 15.224c3.539.594 6.754 2.27 9.32 4.836a17.219 17.219 0 0 1 4.836 9.32 1.812 1.812 0 0 0 1.796 1.513c.108 0 .203-.014.311-.027a1.825 1.825 0 0 0 1.5-2.107c-.73-4.282-2.756-8.186-5.85-11.28-3.093-3.093-6.996-5.119-11.278-5.848-1-.162-1.932.5-2.107 1.486-.176.986.472 1.945 1.472 2.107ZM63.926 28.232C62.723 21.18 59.4 14.765 54.295 9.659 49.189 4.553 42.773 1.23 35.722.028c-.986-.176-1.919.5-2.094 1.486-.162 1 .5 1.931 1.5 2.107 6.294 1.067 12.035 4.052 16.6 8.604 4.566 4.566 7.537 10.307 8.605 16.601a1.812 1.812 0 0 0 1.796 1.513c.108 0 .203-.014.31-.027a1.79 1.79 0 0 0 1.487-2.08Z"/></g><defs><clipPath id="la"><path fill="#fff" d="M0 0h64v64H0z"/></clipPath></defs></svg><svg fill="none" viewBox="0 0 48 48" id="place" xmlns="http://www.w3.org/2000/svg"><g clip-path="url(#na)" fill="#000"><path d="M41.89 46.31 35.56 32.923a1.185 1.185 0 0 0-.607-.584l-3.149-1.401 5.455-9.143c.013-.021.026-.044.037-.066a14.77 14.77 0 0 0 1.635-6.799c0-4.027-1.58-7.803-4.447-10.631A14.825 14.825 0 0 0 23.789.002c-3.914.054-7.599 1.626-10.377 4.426-2.777 2.8-4.32 6.499-4.343 10.413a14.974 14.974 0 0 0 1.671 6.955l5.455 9.143-3.166 1.409c-.26.115-.468.32-.59.575L6.113 46.31a1.184 1.184 0 0 0 1.552 1.589l7.928-3.53 7.927 3.53c.307.136.657.136.963 0l7.928-3.53 7.927 3.53a1.183 1.183 0 0 0 1.552-1.589ZM12.794 20.615a12.422 12.422 0 0 1-1.357-5.761c.04-6.79 5.596-12.39 12.384-12.485a12.483 12.483 0 0 1 9 3.617 12.472 12.472 0 0 1 3.741 8.944 12.42 12.42 0 0 1-1.357 5.685L25.018 37.693A1.166 1.166 0 0 1 24 38.27c-.203 0-.707-.056-1.018-.577L12.795 20.616ZM32.89 41.99a1.185 1.185 0 0 0-.963 0L24 45.52l-7.927-3.53a1.185 1.185 0 0 0-.963 0l-5.492 2.445 4.775-10.102 3.024-1.346 3.532 5.92A3.524 3.524 0 0 0 24 40.638a3.524 3.524 0 0 0 3.052-1.733l3.53-5.918 3.025 1.346 4.776 10.1-5.492-2.444Z"/><path d="M24.001 9.526a5.412 5.412 0 0 0-5.405 5.405A5.411 5.411 0 0 0 24 20.337a5.411 5.411 0 0 0 5.406-5.406A5.412 5.412 0 0 0 24 9.526Zm0 8.442a3.04 3.04 0 0 1-3.037-3.037 3.04 3.04 0 0 1 3.037-3.037 3.04 3.04 0 0 1 3.037 3.037 3.04 3.04 0 0 1-3.037 3.037Z"/></g><defs><clipPath id="na"><path fill="#fff" d="M0 0h48v48H0z"/></clipPath></defs></svg><svg fill="none" viewBox="0 0 48 48" id="ruble" xmlns="http://www.w3.org/2000/svg"><g clip-path="url(#oa)"><g clip-path="url(#ob)" fill="#000"><path d="M28.364 13.09h-7.636c-.602 0-1.09.49-1.09 1.092v14.181h-5.455a1.091 1.091 0 0 0 0 2.182h5.454v3.273a1.091 1.091 0 0 0 2.182 0v-3.273h5.455a1.091 1.091 0 0 0 0-2.182h-5.455v-2.181h6.546a6.553 6.553 0 0 0 6.545-6.546 6.553 6.553 0 0 0-6.545-6.545Zm0 10.91H21.82v-8.727h6.546a4.368 4.368 0 0 1 4.363 4.363A4.368 4.368 0 0 1 28.364 24Z"/><path d="M24 0C10.767 0 0 10.767 0 24s10.767 24 24 24 24-10.767 24-24S37.233 0 24 0Zm0 45.818C11.97 45.818 2.182 36.031 2.182 24 2.182 11.97 11.969 2.182 24 2.182c12.03 0 21.818 9.787 21.818 21.818 0 12.03-9.787 21.818-21.818 21.818Z"/></g></g><defs><clipPath id="oa"><path fill="#fff" d="M0 0h48v48H0z"/></clipPath><clipPath id="ob"><path fill="#fff" d="M0 0h48v48H0z"/></clipPath></defs></svg><svg fill="none" viewBox="0 0 48 49" id="shield" xmlns="http://www.w3.org/2000/svg"><g clip-path="url(#pa)" fill="#000"><path d="M23.99 27.335a.94.94 0 1 0 0-1.88.94.94 0 0 0 0 1.88Z"/><path d="M23.453 47.825a.937.937 0 0 0 1.093 0c9.57-6.836 19.18-9.836 19.18-23.902V6.509a.94.94 0 0 0-.862-.936l-2.441-.204c-5.598-.467-11.105-2.307-15.926-5.32a.94.94 0 0 0-.995 0C18.68 3.062 13.172 4.902 7.575 5.369l-2.441.204a.94.94 0 0 0-.862.936v17.414c0 14.463 10.96 18.03 19.18 23.902ZM6.153 7.373l1.58-.132C13.434 6.765 19.045 4.938 24 1.948c4.953 2.99 10.564 4.817 16.267 5.293l1.58.132v16.55c0 12.684-8.452 15.405-17.849 21.988-8.247-5.725-17.846-8.974-17.846-21.988V7.373Z"/><path d="M23.453 40.997a.932.932 0 0 0 1.095-.024C33.05 35.087 38.09 33.15 38.09 23.924v-12.32a.94.94 0 0 0-.8-.93 41.392 41.392 0 0 1-12.86-4.158.956.956 0 0 0-.902.021 41.363 41.363 0 0 1-12.818 4.138.94.94 0 0 0-.8.929v12.32c0 9.313 5.52 11.599 13.543 17.073ZM11.789 12.405a43.212 43.212 0 0 0 11.262-3.54v13.773a.94.94 0 1 0 1.879 0V8.857a43.247 43.247 0 0 0 11.282 3.548v11.52c0 7.635-3.577 9.3-11.282 14.51v-8.282a.94.94 0 1 0-1.879 0v8.31c-7.198-4.793-11.262-6.84-11.262-14.539v-11.52Z"/></g><defs><clipPath id="pa"><path fill="#fff" d="M0 0h48v48.094H0z"/></clipPath></defs></svg><svg fill="none" viewBox="0 0 24 24" id="user" xmlns="http://www.w3.org/2000/svg"><path d="M12 10a4 4 0 1 0 0-8 4 4 0 0 0 0 8Zm7.71 6.2a10.92 10.92 0 0 0-15.42 0l-.29.3V21h16v-4.5l-.29-.3Z" fill="#000"/></svg><svg fill="none" viewBox="0 0 48 48" id="way" xmlns="http://www.w3.org/2000/svg"><path fill-rule="evenodd" clip-rule="evenodd" d="M15.229 7.628a3.854 3.854 0 0 0-3.85-3.85 3.854 3.854 0 0 0-3.85 3.85 3.854 3.854 0 0 0 3.85 3.85 3.854 3.854 0 0 0 3.85-3.85Zm-5.825 0c0-1.088.886-1.974 1.975-1.974s1.975.886 1.975 1.974a1.977 1.977 0 0 1-1.975 1.975 1.977 1.977 0 0 1-1.975-1.975ZM37.253 24.563c-2.416 0-4.47.602-5.71 1.559l-3.363-.749a.938.938 0 0 0-.407 1.83l2.577.574c-.048.187-.073.38-.073.576 0 1.274 1.042 2.362 2.712 3.042l-1.501 1.544a.938.938 0 0 0 1.345 1.307l2.218-2.282c.687.117 1.425.18 2.202.18 3.977 0 6.976-1.63 6.976-3.79 0-2.161-2.999-3.791-6.976-3.791Zm0 5.706c-3.067 0-5.101-1.153-5.101-1.916 0-.16.09-.336.258-.515a.804.804 0 0 0 .082-.082c.7-.653 2.432-1.318 4.76-1.318 3.068 0 5.102 1.153 5.102 1.915 0 .763-2.034 1.916-5.101 1.916ZM26.105 41.168l1.501-1.544a.937.937 0 1 0-1.344-1.307L24.044 40.6a13.245 13.245 0 0 0-2.202-.18c-3.977 0-6.977 1.63-6.977 3.79 0 2.161 3 3.791 6.977 3.791 3.977 0 6.976-1.63 6.976-3.79 0-1.274-1.043-2.362-2.713-3.042Zm-4.263 4.957c-3.067 0-5.102-1.153-5.102-1.915 0-.763 2.035-1.916 5.102-1.916 3.066 0 5.1 1.153 5.1 1.916 0 .762-2.034 1.915-5.1 1.915Z" fill="#000"/><path fill-rule="evenodd" clip-rule="evenodd" d="M20.451 25.573a.935.935 0 0 0 1.119-.712.937.937 0 0 0-.711-1.118l-2.578-.575c.049-.187.074-.38.074-.576 0-1.757-1.954-2.943-4.193-3.477l4.184-8.378.02-.042c.425-.97.641-2 .641-3.066C19.007 3.422 15.585 0 11.378 0 7.173 0 3.75 3.422 3.75 7.629a7.573 7.573 0 0 0 .662 3.108l4.187 8.386c-2.244.547-4.197 1.734-4.197 3.47 0 2.16 3 3.79 6.977 3.79 2.415 0 4.47-.603 5.71-1.559l3.362.748ZM5.625 7.629a5.76 5.76 0 0 1 5.754-5.754 5.76 5.76 0 0 1 5.278 8.045L11.38 20.494 6.1 9.92a5.707 5.707 0 0 1-.475-2.291Zm.652 14.963c0-.492 1.221-1.348 3.185-1.74l1.078 2.159a.937.937 0 0 0 1.678 0l1.08-2.164c1.986.376 3.182 1.23 3.182 1.745 0 .16-.091.337-.26.517a.915.915 0 0 0-.081.08c-.7.654-2.432 1.318-4.76 1.318-3.067 0-5.102-1.152-5.102-1.915ZM29.547 35.344a.94.94 0 0 0-.938.938.94.94 0 0 0 .938.937.94.94 0 0 0 .937-.937.94.94 0 0 0-.937-.938ZM24.316 26.41a.94.94 0 0 0 .938-.937.94.94 0 0 0-.938-.938.94.94 0 0 0-.937.938.94.94 0 0 0 .937.937Z" fill="#000"/></svg></svg>